<?xml version="1.0" encoding="UTF-8"?>
<svg xmlns="http://www.w3.org/2000/svg" xmlns:xlink="http://www.w3.org/1999/xlink" width="419.528" height="297.638" viewBox="0 0 419.528 297.638">
<path fill="none" stroke-width="1" stroke-linecap="butt" stroke-linejoin="miter" stroke="rgb(0%, 0%, 0%)" stroke-opacity="1" stroke-miterlimit="10" d="M 18.425157 191.340905 L 103.46205 191.340905 L 103.46205 276.377799 L 18.425157 276.377799 Z M 18.425157 191.340905 " transform="matrix(0.998785, 0, 0, -0.998785, 0.0191007, 297.27644)"/>
<path fill="none" stroke-width="1" stroke-linecap="butt" stroke-linejoin="miter" stroke="rgb(0%, 0%, 0%)" stroke-opacity="1" stroke-miterlimit="10" d="M 60.945559 148.820503 L 145.982452 148.820503 L 145.982452 233.857397 L 60.945559 233.857397 Z M 60.945559 148.820503 " transform="matrix(0.998785, 0, 0, -0.998785, 0.0191007, 297.27644)"/>
<path fill="none" stroke-width="1" stroke-linecap="butt" stroke-linejoin="miter" stroke="rgb(0%, 0%, 0%)" stroke-opacity="1" stroke-miterlimit="10" d="M 103.465961 106.300101 L 188.502855 106.300101 L 188.502855 191.336994 L 103.465961 191.336994 Z M 103.465961 106.300101 " transform="matrix(0.998785, 0, 0, -0.998785, 0.0191007, 297.27644)"/>
<path fill="none" stroke-width="1" stroke-linecap="butt" stroke-linejoin="miter" stroke="rgb(0%, 0%, 0%)" stroke-opacity="1" stroke-miterlimit="10" d="M 18.425157 63.779698 L 103.46205 63.779698 L 103.46205 148.820503 L 18.425157 148.820503 Z M 18.425157 63.779698 " transform="matrix(0.998785, 0, 0, -0.998785, 0.0191007, 297.27644)"/>
<path fill="none" stroke-width="1" stroke-linecap="butt" stroke-linejoin="miter" stroke="rgb(0%, 0%, 0%)" stroke-opacity="1" stroke-miterlimit="10" d="M 60.945559 21.259296 L 145.982452 21.259296 L 145.982452 106.300101 L 60.945559 106.300101 Z M 60.945559 21.259296 " transform="matrix(0.998785, 0, 0, -0.998785, 0.0191007, 297.27644)"/>
<path fill="none" stroke-width="1" stroke-linecap="butt" stroke-linejoin="miter" stroke="rgb(0%, 0%, 0%)" stroke-opacity="1" stroke-miterlimit="10" d="M 103.465961 63.779698 L 188.502855 63.779698 L 188.502855 148.820503 L 103.465961 148.820503 Z M 103.465961 63.779698 " transform="matrix(0.998785, 0, 0, -0.998785, 0.0191007, 297.27644)"/>
<path fill="none" stroke-width="1" stroke-linecap="butt" stroke-linejoin="miter" stroke="rgb(0%, 0%, 0%)" stroke-opacity="1" stroke-miterlimit="10" d="M 145.982452 148.820503 L 231.023257 148.820503 L 231.023257 233.857397 L 145.982452 233.857397 Z M 145.982452 148.820503 " transform="matrix(0.998785, 0, 0, -0.998785, 0.0191007, 297.27644)"/>
<path fill="none" stroke-width="1" stroke-linecap="butt" stroke-linejoin="miter" stroke="rgb(0%, 0%, 0%)" stroke-opacity="1" stroke-miterlimit="10" d="M 188.502855 191.340905 L 273.543659 191.340905 L 273.543659 276.377799 L 188.502855 276.377799 Z M 188.502855 191.340905 " transform="matrix(0.998785, 0, 0, -0.998785, 0.0191007, 297.27644)"/>
<path fill="none" stroke-width="1" stroke-linecap="butt" stroke-linejoin="miter" stroke="rgb(0%, 0%, 0%)" stroke-opacity="1" stroke-miterlimit="10" d="M 188.502855 106.300101 L 273.543659 106.300101 L 273.543659 191.336994 L 188.502855 191.336994 Z M 188.502855 106.300101 " transform="matrix(0.998785, 0, 0, -0.998785, 0.0191007, 297.27644)"/>
<path fill="none" stroke-width="1" stroke-linecap="butt" stroke-linejoin="miter" stroke="rgb(0%, 0%, 0%)" stroke-opacity="1" stroke-miterlimit="10" d="M 231.023257 63.779698 L 316.064062 63.779698 L 316.064062 148.820503 L 231.023257 148.820503 Z M 231.023257 63.779698 " transform="matrix(0.998785, 0, 0, -0.998785, 0.0191007, 297.27644)"/>
<path fill="none" stroke-width="1" stroke-linecap="butt" stroke-linejoin="miter" stroke="rgb(0%, 0%, 0%)" stroke-opacity="1" stroke-miterlimit="10" d="M 273.543659 21.259296 L 358.580553 21.259296 L 358.580553 106.300101 L 273.543659 106.300101 Z M 273.543659 21.259296 " transform="matrix(0.998785, 0, 0, -0.998785, 0.0191007, 297.27644)"/>
<path fill="none" stroke-width="1" stroke-linecap="butt" stroke-linejoin="miter" stroke="rgb(0%, 0%, 0%)" stroke-opacity="1" stroke-miterlimit="10" d="M 273.543659 148.820503 L 358.580553 148.820503 L 358.580553 233.857397 L 273.543659 233.857397 Z M 273.543659 148.820503 " transform="matrix(0.998785, 0, 0, -0.998785, 0.0191007, 297.27644)"/>
<path fill="none" stroke-width="1" stroke-linecap="butt" stroke-linejoin="miter" stroke="rgb(0%, 0%, 0%)" stroke-opacity="1" stroke-miterlimit="10" d="M 316.064062 106.300101 L 401.100955 106.300101 L 401.100955 191.336994 L 316.064062 191.336994 Z M 316.064062 106.300101 " transform="matrix(0.998785, 0, 0, -0.998785, 0.0191007, 297.27644)"/>
<path fill="none" stroke-width="1" stroke-linecap="butt" stroke-linejoin="miter" stroke="rgb(0%, 0%, 0%)" stroke-opacity="1" stroke-miterlimit="10" d="M 231.023257 191.340905 L 316.064062 191.340905 L 316.064062 276.377799 L 231.023257 276.377799 Z M 231.023257 191.340905 " transform="matrix(0.998785, 0, 0, -0.998785, 0.0191007, 297.27644)"/>
<path fill="none" stroke-width="1" stroke-linecap="butt" stroke-linejoin="miter" stroke="rgb(0%, 0%, 0%)" stroke-opacity="1" stroke-miterlimit="10" d="M 18.425157 106.300101 L 103.46205 106.300101 L 103.46205 191.336994 L 18.425157 191.336994 Z M 18.425157 106.300101 " transform="matrix(0.998785, 0, 0, -0.998785, 0.0191007, 297.27644)"/>
<path fill="none" stroke-width="1" stroke-linecap="butt" stroke-linejoin="miter" stroke="rgb(0%, 0%, 0%)" stroke-opacity="1" stroke-miterlimit="10" d="M 188.502855 21.259296 L 273.543659 21.259296 L 273.543659 106.300101 L 188.502855 106.300101 Z M 188.502855 21.259296 " transform="matrix(0.998785, 0, 0, -0.998785, 0.0191007, 297.27644)"/>
</svg>
